<svg xmlns="http://www.w3.org/2000/svg" viewBox="0 0 158.46 15.04"><defs><style>.cls-1{fill:#181213;}</style></defs><title>Oakley</title><g id="Layer_2" data-name="Layer 2"><g id="Layer_1-2" data-name="Layer 1"><path d="M17,12.78v.15C17,14.44,14.74,15,8.4,15,3.32,15,.69,14.55.14,13.46a2.61,2.61,0,0,1-.14-1V2.67C0,1.38.55.88,2.16.5A30.84,30.84,0,0,1,8.44,0a36.69,36.69,0,0,1,6.27.46C16.49.81,17,1.29,17,2.52V12.78M6.58,12.4v.22c0,.84.72,1,1.82,1,1.34,0,2-.15,2-.89V2.19c0-.63-.82-.79-2-.79s-1.86.16-1.86.84V12.4Z"></path><path d="M39,14.77l-1.2-3.64H33.27l-1,3.64H27.13L32.41.18h8.33l5.73,14.59H39M37.31,9.45l-2-5.77L33.61,9.45Z"></path><polygon points="64.65 0.17 64.65 6.11 70.14 0.17 76.31 0.17 70.72 6.2 75.97 14.77 68.36 14.77 64.65 8.35 64.65 14.77 57.52 14.77 57.52 0.17 64.65 0.17"></polygon><polygon points="94.25 0.17 94.25 12.84 101.31 12.84 101.31 14.77 87.11 14.77 87.11 0.17 94.25 0.17"></polygon><polygon points="125.87 2.02 119.05 2.02 119.05 6.53 124.3 6.53 124.33 8.24 119.08 8.24 119.08 12.93 125.84 12.93 125.84 14.77 111.92 14.77 111.92 0.17 125.87 0.17 125.87 2.02"></polygon><polygon points="147.51 14.77 140.34 14.77 140.34 9.36 134.13 0.17 141.75 0.17 144.9 5.63 148.09 0.17 153.65 0.17 147.51 9.36 147.51 14.77"></polygon><path class="cls-1" d="M158.46,1.32c0,.59-.67,1.07-1.52,1.07s-1.53-.48-1.53-1.07S156.08.26,157,.26,158.46.72,158.46,1.32Zm-2.67,0c0,.47.5.85,1.16.85s1.13-.38,1.13-.85-.49-.85-1.15-.85S155.79.85,155.79,1.32Zm.91.55h-.34V.81a3.75,3.75,0,0,1,.57,0,1.06,1.06,0,0,1,.51.09.25.25,0,0,1,.15.23c0,.12-.14.21-.31.25h0a.32.32,0,0,1,.26.26,1.25,1.25,0,0,0,.11.26h-.36s-.07-.13-.12-.26-.12-.16-.31-.16h-.16Zm0-.6h.17c.18,0,.34,0,.34-.15s-.1-.16-.32-.16h-.19Z"></path></g></g></svg>
