    <svg xmlns="http://www.w3.org/2000/svg" viewBox="0 0 96.17 47.54" style="width: 150px;"><defs><style>.cls-1{fill:#231f20;fill-rule:evenodd;}</style></defs><title>Ray Bans</title><g id="Layer_2" data-name="Layer 2"><g id="Layer_1-2" data-name="Layer 1"><path class="cls-1" d="M94.33,10.17A1.85,1.85,0,1,0,96.17,12a1.84,1.84,0,0,0-1.84-1.84Zm0,3.47A1.63,1.63,0,1,1,95.94,12a1.63,1.63,0,0,1-1.61,1.63Z"/><path class="cls-1" d="M95.27,11.53a.5.5,0,0,0-.23-.45,1,1,0,0,0-.5-.1h-.9V13h.25v-.95h.47l.58.95h.3l-.62-.95h0c.37,0,.65-.16.65-.56Zm-1,.36h-.39v-.72h.59c.26,0,.54,0,.54.35s-.45.37-.74.37Z"/><path class="cls-1" d="M32.57,42.43l-12-5.87h0a.83.83,0,0,1-.4-.71h0l0-3.24h0a.78.78,0,0,1,.35-.68,28.81,28.81,0,0,0,9.38-9c5.48-8,0-14.71-8.56-12.88A60.79,60.79,0,0,0,2.66,18c-3,2-2.58,4.4-2.66,6.56.17.91.5.83,1.25-.08,5.56-5.15,14-9.06,15.62-9.72s5.31-2.91,9.72-1.91c4.23,1,3.2,6.71,1.91,9.14a24.65,24.65,0,0,1-7.27,7.47c-.7.37-1,0-1-.58h0l.29-12.5h0c0-.83-.37-1.21-1.2-.92h0L18,16.14h0c-.92.54-.87.75-1,1.41h0L16.87,32h0a.68.68,0,0,1-.32.63h0L12.21,35h0c-1,.5-.74,1.25,0,1.49h0L15.7,38.2h0c.83.33,1.08.58,1.08,1.41h0l-.12,7h0c3.11-.63,3.32-2.12,3.4-3.12h0V41.35h0c.09-.49.38-.66.79-.58h0L31,45.67h0c.91.42,1.41.25,2.08-.91s.74-1.74-.5-2.33Z"/><path class="cls-1" d="M50.28,24.82c-1.41.82-2.06,2.34-1.5,3.3s2.23,1.12,3.64.31,2-2.29,1.46-3.26-2.19-1.16-3.6-.35Z"/><path class="cls-1" d="M45.08,25.86a19.68,19.68,0,0,0-1.53,2.76c-.42.87-1.29,2.85-2.16,2.85s-1-2.29-1-3.12-.5-1-.75-.91a1.49,1.49,0,0,0-1.16,1.16c-.21.87-1.33,4.65-2.58,4.65-.79,0-1.37-2.28-1.41-3S34.08,29,33.37,29a2.06,2.06,0,0,0-1.37.54c-.25.3-.29.75-1.62.46-1.21,0-2.37.58-3.78,3-.85,1.43-1.54,4.08-.25,5.15s3.32-.79,3.95-1.53a21.1,21.1,0,0,0,1.41-1.71c.25-.41.5-.37.62,0s.83,2,1.75,2,2.07-.75,3.44-3.16c.25-.5.63-.46.71,0s.62,1.79,1.54,1.79,1.84-1.39,2.32-2.21c.34-.56.83-.29.83.25s-.24,13.3-.24,13.3c0,.58.22.74.64.74h1.81a.67.67,0,0,0,.62-.74h0l.37-20.67h0c0-.5-.56-.85-1-.27ZM31,34c-.37.62-1.37,2.29-2.24,2-.46-.25.15-1.92.45-2.5.46-.87,1.8-2.26,2.41-1.91S31.33,33.38,31,34Z"/><path class="cls-1" d="M94.26,21.26a.83.83,0,0,1-1,.12c-1-.41-1.12-2.36-1.66-4.15-.49-1.6-1.66-1.5-2.08-.77h0l-1.27,2h0c-.23.41-.72,1.37-1.22,1.37s-.32-.83-.29-1.66c0-.56-.34-1.27-.92-1.27s-1.37,1-1.91,2.18c-.38.81-1.35,3.93-2.57,3.93-.79,0-.88-2.29-.92-3s-.29-1.58-1-1.58a1.32,1.32,0,0,0-1,.54c-.25.29-.29.54-1.17.41-1.2,0-3.2,1.08-4.61,3.45-.85,1.43-1.87,4.41-.58,5.48s3.37-1.33,4-2.07a21.1,21.1,0,0,0,1.41-1.71c.25-.41.5-.37.62,0s.83,2,1.75,2,1.66-.25,3-2.66c.25-.5.71-.56.79-.15s.17,1.52,1,1.52c1.49,0,3.19-3.64,3.61-4.49s1-.54,1.19,0c.29.8.56,3.38,2.18,3.38s2.72-1.72,3.05-2.26.18-1.23-.39-.73ZM76.64,23.75c-.37.63-1.2,2-2.07,1.71-.46-.25.11-1.46.41-2,.46-.87,1.8-2.28,2.41-1.93s-.37,1.64-.75,2.26Z"/><path class="cls-1" d="M68.62,21.57a42.58,42.58,0,0,1-4.53-3.73,1.08,1.08,0,0,1,.21-1.71c2.49-1.66,6.39-4.23,7.93-8.22S71.4.72,69.74.18c-2.28-.74-7.1.75-9.51,5.24-1.56,2.9-2.29,3.86-2.5,11.75,0,1.5-.08,3.2-.08,5.07s-.21,6.94-.41,7.89c-.79,2.25,1.57.92,2.65,0a3.21,3.21,0,0,0,1-2.74c0-.7,0-13.17.42-15.95.23-1.73.49-4.94,2.32-7.73s3.7-1.66,4.2-1.2,1.2,1.62.83,4c-.58,3.67-4.82,7.68-5.9,8.93a2.34,2.34,0,0,0-.21,3.2,32.91,32.91,0,0,0,2.66,2.95A2.74,2.74,0,0,1,66,24.48c-.58,2.25-6.64,8.31-6.64,8.31-1.29,1.37,0,3.61.49,4.36s1,.5,1.42-.12c1.49-2.79,7.93-9.51,7.93-9.51a3.93,3.93,0,0,0-.62-5.95Z"/></g></g></svg>
