    <svg xmlns="http://www.w3.org/2000/svg" viewBox="0 0 114.08 17" style="height:30px;"><title>Tom Ford</title><g id="Layer_2" data-name="Layer 2"><g id="Layer_1-2" data-name="Layer 1"><path d="M8.48,16.71H5.65V2.92H0V.29H14V2.92H8.48ZM66.48.29H54.27V16.71H57.1V10.39h8.7V7.77H57.1V2.92h9.38ZM98.93,16.71,94.52,9.87a4.43,4.43,0,0,0,3.61-4.71c0-3.07-2-4.87-5.88-4.87H85V16.71h2.83V10.37h3.61l4.08,6.34ZM91.69,2.92c2.15,0,3.51.55,3.51,2.33,0,1.55-1.25,2.52-3.51,2.52H87.85V2.92h3.84m13.68,13.79c5.43,0,8.71-3.59,8.71-8.24S110.68.29,105.37.29h-6.1V16.71h6.1m0-13.79A5.32,5.32,0,0,1,111,8.53a5.25,5.25,0,0,1-5.65,5.55h-3.28V2.92h3.28M40.47,16.71,45,4.92V16.71h2.82V.29H43.75L39.68,10.84,35.73.29H31.65V16.71h2.83V4.94l4.41,11.77ZM21.93,17a8.33,8.33,0,0,0,8.6-8.51A8.31,8.31,0,0,0,21.93,0a8.39,8.39,0,0,0-8.59,8.51A8.38,8.38,0,0,0,21.93,17m0-14.34a5.55,5.55,0,0,1,5.54,5.85,5.55,5.55,0,1,1-11.08,0,5.52,5.52,0,0,1,5.54-5.83M75.3,17a8.33,8.33,0,0,0,8.59-8.51A8.31,8.31,0,0,0,75.3,0a8.39,8.39,0,0,0-8.6,8.51A8.38,8.38,0,0,0,75.3,17m0-14.34a5.54,5.54,0,0,1,5.53,5.85,5.51,5.51,0,0,1-5.53,5.83,5.61,5.61,0,0,1-5.54-5.85A5.52,5.52,0,0,1,75.3,2.66"/></g></g></svg>
